<svg width="25" height="23" viewBox="0 0 25 23" fill="none" xmlns="http://www.w3.org/2000/svg">
<path d="M24.7755 5.53862C24.5417 5.20113 24.158 4.99988 23.748 4.99988H6.66463L5.22216 1.53746C4.83217 0.602486 3.92719 0 2.91472 0H-0.00146484V2.49994H2.91472L8.84458 16.7309C9.03832 17.1958 9.49331 17.4996 9.9983 17.4996H19.9981C20.5193 17.4996 20.9855 17.1758 21.1693 16.6896L24.9192 6.68984C25.0629 6.30485 25.0092 5.87486 24.7755 5.53862ZM19.1318 14.9996H10.832L7.7071 7.49982H21.9443L19.1318 14.9996Z" fill="#7E7676"/>
<path d="M10.6232 22.4995C11.6588 22.4995 12.4982 21.66 12.4982 20.6245C12.4982 19.589 11.6588 18.7496 10.6232 18.7496C9.58774 18.7496 8.74829 19.589 8.74829 20.6245C8.74829 21.66 9.58774 22.4995 10.6232 22.4995Z" fill="#7E7676"/>
<path d="M19.373 22.4995C20.4085 22.4995 21.248 21.66 21.248 20.6245C21.248 19.589 20.4085 18.7496 19.373 18.7496C18.3375 18.7496 17.498 19.589 17.498 20.6245C17.498 21.66 18.3375 22.4995 19.373 22.4995Z" fill="#7E7676"/>
</svg>
