<svg width="25" height="23" viewBox="0 0 25 23" fill="none" xmlns="http://www.w3.org/2000/svg">
<path d="M12.5005 1.95283C11.1168 0.691889 9.35195 0 7.49187 0C5.51397 0 3.64135 0.780883 2.2112 2.20352C-0.738109 5.16536 -0.736856 9.79801 2.2137 12.7473L11.4038 21.9374C11.6169 22.3122 12.028 22.5541 12.5005 22.5541C12.9042 22.5541 13.2639 22.3498 13.4933 22.0414L22.7874 12.7473C25.738 9.79676 25.738 5.16536 22.7849 2.1985C21.3597 0.780883 19.4871 0 17.5092 0C15.6504 0 13.8843 0.691889 12.5005 1.95283ZM21.0125 3.97084C22.9716 5.93997 22.9729 9.01587 21.0151 10.975L12.5005 19.4895L3.98604 10.975C2.0282 9.01587 2.02945 5.93997 3.98354 3.97586C4.93614 3.02827 6.18204 2.50685 7.49187 2.50685C8.8017 2.50685 10.0426 3.02827 10.9877 3.97335L11.6144 4.60006C12.1045 5.09015 12.8966 5.09015 13.3867 4.60006L14.0134 3.97335C15.9086 2.08194 19.1199 2.08695 21.0125 3.97084Z" fill="#7E7676"/>
</svg>
